<?xml version="1.0" encoding="utf-8"?>
<!-- Generator: Adobe Illustrator 15.0.0, SVG Export Plug-In . SVG Version: 6.00 Build 0)  -->
<!DOCTYPE svg PUBLIC "-//W3C//DTD SVG 1.1//EN" "http://www.w3.org/Graphics/SVG/1.1/DTD/svg11.dtd">
<svg version="1.1" id="Ebene_1" xmlns="http://www.w3.org/2000/svg" xmlns:xlink="http://www.w3.org/1999/xlink" x="0px" y="0px"
	 width="10396.001px" height="7323px" viewBox="0 0 10396.001 7323" enable-background="new 0 0 10396.001 7323"
	 xml:space="preserve">
<g>
	<g>
		<path fill="#5B819D" d="M107.197,829.25c586.859,60.781,1505.063,175.875,2193.188,250.797
			c261.719,28.469,533.719,87.172,722.281,63.281c452.734-57.266,647.453-459.203,996.578-656.344
			c111.578-9.766,223.156-19.547,334.718-29.297c-204.984,145.75-401.531,298.594-613.749,454.203
			c-194.828,142.859-436.406,345.25-704.766,377.875c-215.406,26.172-487.266-54.328-745.031-82.375
			C1597.51,1131.953,791.838,1069.046,118.15,954.75C114.509,912.921,110.838,871.062,107.197,829.25z"/>
		<path fill="#5B819D" d="M924.916,778.781c624.359-126.453,1127.547-19.375,1690.047,41.875
			c169.438,18.438,289.734,62.25,444.828,24.312c272.203-66.641,342.438-321.594,666.562-332.344
			c81.375,20-52.266,99.453-93.625,134.672c-132.797,113.109-380.266,311.312-581.062,345.969
			c-157.703,27.188-354.578-14.125-551.234-36.094C2013.885,902.812,1388.885,831.984,924.916,778.781z"/>
		<path fill="#5B819D" d="M2326.541,656.156c281.688-73.797,661.828-64.953,981.406-106.922
			C3096.744,816.562,2655.885,686.265,2326.541,656.156z"/>
		<path fill="#5B819D" d="M5046.166,418.218c-1.235-20.406,24.156-18.469,39.984-24.578
			c224.546,31.625,253.688,309.609,416.844,427.297c156.234,112.719,371.968,33.422,661.328,89.703
			c208.031,40.453,337.938,156.938,562.203,161.609c477.828,9.953,996.188-230.938,1446.109-337.297
			c78.75-18.641,158.281-28.141,249.219-42.891c53.766-8.719,164.721-90.953,211.016,2.625
			c58.609,143.922-101.031,101.016-158.188,119.234c-191.5,61.094-401.828,112.922-616.607,180.438
			c-285.064,89.594-583.861,198.422-843.096,242.406c-169.734,28.797-337.812,26.031-463.891-1.578
			c-141.828-31.047-276.016-140.312-415.797-174.422c-168.079-41-367.703,25.078-530.329-37.922
			C5331.541,916.875,5309.025,533.781,5046.166,418.218z"/>
		<path fill="#5B819D" d="M5297.196,396.265c-1.218-20.422,24.173-18.484,40.016-24.578
			c118.079,68.234,187.438,214.156,316.673,246.328c105.858,26.375,236.172-16.141,378.39-12.016
			c180.86,5.25,388.345,73.922,554.907,77.938c577.844,13.969,1212.938-229.625,1788.156-282.922
			c63.547-5.906,182.236-52.656,233.766,21.703c37.688,107.031-109.969,106.359-158.188,119.234
			c-225,59.984-460.609,89.359-704,145.906c-375.156,87.203-804.188,231.297-1206.031,189.844
			c-160.562-16.594-320.328-110.391-474.875-127.094c-164.595-17.766-334.359,30.969-442.984-3.391
			C5472.229,699.484,5392.244,498.25,5297.196,396.265z"/>
		<path fill="#5B819D" d="M5485.479,379.781c-5.391-17.484,6.437-20.469,19.078-22.75
			c948.234-12.125,1971.828-266.469,2949.734-258.078c36.297,0.344,145.547-46.328,131.033,51.766
			c34.029,133.891-147.33,93.781-201.893,101.984c-688.578,103.781-1556,217.031-2257.562,218.594
			C5845.681,471.953,5641.979,511.906,5485.479,379.781z"/>
		<path fill="#5B819D" d="M8658.525,987.531c29.438,145.891-145.219,105.219-200.031,122.922
			c-228.359,73.734-473.812,153.922-715.734,252.328c-350.219,142.469-738.641,355.594-1092.282,285.266
			c-207.452-41.219-331.405-252.562-554.155-309.875c-145.892-37.5-302.626,16.359-444.797-24.344
			c-296.797-84.922-425.547-556.5-747.095-588.125c-332.608-32.688-657.546,195.453-936.703,377.078
			c-253.609,164.984-536.843,398.578-824.781,451.609c-239.688,44.156-524.812-28.75-785.016-57.797
			C1714.588,1424.765,1106.572,1353,463.088,1282.937c-94.438-10.281-276.094,37.828-324.75-98.062
			c7.219-134.297,229.438-36.812,313.781-27.438c607.969,67.609,1228.438,118.922,1851.141,196.391
			c251.391,31.297,526.812,102.641,724.094,84.219c242.141-22.578,476.953-204.281,666.578-332.344
			c202.516-136.797,387.219-307,575.563-408.719c121.047-65.391,305.609-156.641,470.172-167.609
			c464.953-31.062,523.875,518.188,899.046,638.062c155.876,49.812,306.86-7.078,465.734,22.5
			c228.032,42.438,379.531,253.297,592.313,264.391c646.564,33.672,1210.564-407.281,1790.734-493.969
			C8517.416,955.875,8642.432,892.765,8658.525,987.531z"/>
		<path fill="#5B819D" d="M8682.324,1259.5c66.545,146.312-108.064,90.281-156.375,140.172
			c-596.221,115.234-1089.955,618.062-1629.689,648.516c-60.812,3.422-165.625-1.438-233.812-21.719
			c-192.642-57.25-349.812-359.188-584.173-412.641c-123.374-28.172-271.187,22.562-401.155-7.078
			c-287.188-65.547-426.734-464.562-717.047-485.359c-424.11-30.406-720.547,213.469-1041.297,386.234
			c-253.047,136.328-534.266,314.078-813.016,345.172c-224.438,25.047-484.531-53.406-745.016-82.375
			c-613.641-68.25-1227.016-122.562-1872.062-194.594c-52.938-5.906-125.875-11.422-191.969-25.359
			c-31.031-6.562-147.812,16.688-132.828-72.703c-16.625-136.5,220.781-58.547,311.953-48.375
			c582.797,65.078,1226.344,147.656,1853,217.328c264.828,29.453,551.281,84.516,764.109,59.625
			c604.438-70.688,1020.563-714.062,1660.531-777.688c450.142-44.734,549.219,445.891,910.782,531.625
			c139.547,33.094,297.155-4.969,423.921,26.156c394.267,96.891,418.954,433.125,957.079,337.891
			c480.814-85.125,927.094-446.016,1425.969-567.453C8522.229,1244.468,8633.916,1180.015,8682.324,1259.5z"/>
		<path fill="#5B819D" d="M8707.949,1552.375c29.654,135.656-145.361,122.484-198.221,143.828
			c-251.312,101.453-441.438,213.25-685.654,355.125c-275.721,160.156-647.564,424.266-1020.393,384.359
			c-321.734-34.453-392.938-432.516-699.751-529c-141.358-44.453-296.64,12.078-444.827-24.344
			c-283.078-69.547-432.844-371.359-728.813-378.906c-313.344-8.031-611.124,164.875-881.249,287.891
			c-256.172,116.688-534.875,277.672-835.766,326.078c-249.953,40.203-513.953-27.656-785.016-57.797
			c-626.938-69.734-1267.906-143.922-1894.828-213.688c-103.781-11.516-260.891,33.766-343.875-75.297
			c-1.219-13.969-2.422-27.875-3.656-41.828c-5.547-24.031,1.344-37.625,17.266-43.688
			c685.031,77.797,1431.75,151.328,2170.422,231.719c234.125,25.516,493.531,100.188,703.172,86.062
			c314.188-21.203,642.703-231.625,936.672-377.078c312.235-154.453,618.563-353.766,964.969-295.219
			c246.046,41.578,424.766,337.297,688.78,403.5c131.859,33.062,295.97-5.594,423.892,26.156
			c301.39,74.734,424.109,456.734,737.953,483.516c350.281,29.906,695.5-202.078,980.391-359.812
			c206.828-114.547,399.547-259.25,645.641-330.531C8516.041,1535.75,8639.26,1473.093,8707.949,1552.375z"/>
		<path fill="#5B819D" d="M8731.744,1824.343c58.594,139.625-96.078,100.281-156.391,140.156
			c-534.359,112.75-1168.5,991.094-1780.578,851.422c-305.048-69.594-412.735-557.266-708.906-633.609
			c-67.892-17.5-277.516,6.406-380.219-8.891c-215.891-32.234-395.47-229.594-592.281-264.375
			c-637.484-112.656-1221.703,460.062-1979.047,510.406c-222.609,14.797-489.438-54.547-745.016-82.359
			c-609.344-66.359-1201.766-121.625-1872.109-194.594c-93.094-10.125-178.969-5.047-256.531-40.812
			c-57.734-26.609-46.812-1.656-49.172-80.016c-18.219-32.859,33.609-94.625,38.172-45.484
			c760.313,57.359,1419.844,154.094,2149.531,233.531c233.344,25.391,493.188,78.844,722.266,63.312
			c325.734-22.078,629.625-192.625,921.265-312.516c304.594-125.156,646.203-287.422,968.61-253.359
			c243.672,25.75,418.016,278.016,639.624,323.5c155.345,31.891,328.626-22.062,465.75,22.469
			c340.985,110.891,394.735,580.25,809.845,582.625c343.594,1.969,662.781-242.828,933.078-418.891
			c200.439-130.594,379.594-283.422,641.969-372.375C8558.9,1825.062,8669.449,1751.5,8731.744,1824.343z"/>
		<path fill="#5B819D" d="M8757.354,2117.234c52.078,140.609-113.404,98.641-177.266,141.984
			c-412.312,146.234-793.359,628.109-1212.109,843.828c-401.547,206.938-699.891,84.609-904.251-215.984
			c-114.75-168.781-159.468-350.312-331.312-413.703c-104.343-38.5-312.75,0.203-465.75-22.5
			c-218.015-32.359-381.499-152.453-541.265-163.453c-677.704-46.469-1347.078,410.297-2050.969,411.344
			c-242.703,0.359-493.547-59.141-724.078-84.234c-604.203-65.781-1199.781-136.469-1788.406-201.891
			c-98.516-10.984-254.172,34.344-322.969-77.172c-1.219-13.953-2.438-27.891-3.641-41.844
			c-5.578-24.047,1.344-37.609,17.234-43.641c666.109,75.703,1440.984,152.281,2170.453,231.688
			c241.422,26.281,486.984,95.922,703.156,86.062c590.094-27,1165.141-428.25,1771.672-471.219
			c308.016-21.812,469.438,161.547,735.077,209.75c165.376,30.016,349.484-26.156,486.642,20.656
			c332.875,113.594,398.266,647.844,756.281,692.734c384.781,48.281,733.047-252.468,993.971-445.328
			c202.342-149.562,368.951-330.469,636.482-435.125C8568.729,2114.796,8689.291,2027.578,8757.354,2117.234z"/>
		<path fill="#5B819D" d="M8782.994,2410.125c48.705,131.344-123.875,76.984-156.391,140.156
			c-331.594,147.781-566.404,396.172-890.188,668.093c-222.967,187.282-485.172,441.345-853,369.767
			c-381.281-74.203-431.797-742.657-769.094-839.188c-104.829-29.984-306.048,15.297-484.797,0.266
			c-236.859-19.953-397.797-87.219-659.484-68.75c-572.516,40.312-1152.25,283.109-1786.313,303.844
			c-234.938,7.703-491.688-54.828-745.016-82.406c-614.969-66.938-1184.266-119.656-1872.078-194.578
			c-84.719-9.234-182.141-6.516-256.547-40.812c-57.719-26.594-46.797-1.672-49.156-80.016
			c-18.234-32.859,33.594-94.625,38.172-45.516c709.594,66.766,1379.406,135.5,2105.844,216.281
			c222.109,24.703,453.812,85.766,682.266,87.875c663.812,6.109,1276.828-372.422,1970.922-362.141
			c171.938,2.516,367.953,95.594,579.516,117.938c152.703,16.109,337.203-30.812,463.89,1.562
			c397.438,101.547,401.845,779.266,850.938,810.907c393.203,27.688,734.562-307.688,967.562-506.25
			c194.188-165.5,356.859-368.938,611.908-475.125C8588.025,2408.734,8710.369,2320.359,8782.994,2410.125z"/>
		<path fill="#5B819D" d="M8804.949,2661.14c53.014,141.453-77.393,128.922-154.533,161.109
			c-318.375,171.688-539.953,438.5-842.859,727.218c-215.844,205.782-499.516,478.126-824.766,451.579
			c-502.063-40.891-451.203-784.72-865.563-978.267c-1019.671,36.031-1919.296,239.844-2866.062,250.719
			c-478.797,5.547-1023.812-108.484-1510.922-162.906c-376.719-42.078-730.078-68.047-1127.078-112.203
			c-105.094-11.703-251.938-8.046-324.781-98.078c-1.25-13.953-2.453-27.875-3.672-41.828c-5.547-24.047,1.359-37.625,17.25-43.672
			c719.047,87.406,1424.5,144.594,2191.375,229.875c230.391,25.625,474.453,91.781,703.156,86.047
			c578.359-14.516,1207.688-207.906,1812.75-242.89c163.672-9.484,367.844,9.25,570.328,13.328
			c196.874,3.938,424.562-53.094,568.5-7.594c163.828,51.828,289.016,318.328,378.625,472.797
			c120.75,208.172,223.188,439.438,502.328,440.891c352.281,1.906,678.703-335.656,920.234-565.36
			C8222.324,2982.343,8449.713,2683.515,8804.949,2661.14z"/>
		<path fill="#5B819D" d="M306.697,3109.53c945.641,66.609,1830.328,205.86,2765.359,285.063
			c-829.5,129.812-1525.703-12.188-2264.047-97.047c-84.438-9.688-176.266-29.251-256.547-40.798
			c-77.422-11.172-185.719,17.297-237.438-63.547C311.556,3165.312,309.119,3137.421,306.697,3109.53z"/>
		<path fill="#5B819D" d="M330.463,3381.469c450.547,32.859,873.516,98.672,1319.031,137.594
			c-334.703,99.312-730.016,62.594-1030.578,26.905C504.791,3532.437,287.322,3559.39,330.463,3381.469z"/>
	</g>
</g>
<g>
	<g>
		<path fill="#4EAF46" d="M1639.998,2287.401c586.859,60.781,1505.062,175.875,2193.188,250.797
			c261.719,28.469,533.719,87.172,722.281,63.281c452.734-57.266,647.453-459.203,996.578-656.344
			c111.578-9.766,223.156-19.547,334.719-29.297c-204.984,145.75-401.531,298.594-613.749,454.203
			c-194.828,142.859-436.407,345.25-704.767,377.875c-215.406,26.172-487.266-54.328-745.031-82.375
			c-692.906-75.438-1498.578-138.344-2172.265-252.641C1647.311,2371.073,1643.639,2329.213,1639.998,2287.401z"/>
		<path fill="#4EAF46" d="M2457.717,2236.932c624.359-126.453,1127.547-19.375,1690.047,41.875
			c169.438,18.438,289.734,62.25,444.828,24.312c272.203-66.641,342.438-321.594,666.562-332.344
			c81.375,20-52.266,99.453-93.625,134.672c-132.797,113.109-380.266,311.312-581.062,345.969
			c-157.703,27.188-354.578-14.125-551.235-36.094C3546.686,2360.963,2921.686,2290.135,2457.717,2236.932z"/>
		<path fill="#4EAF46" d="M3859.342,2114.307c281.687-73.797,661.828-64.953,981.406-106.922
			C4629.545,2274.713,4188.686,2144.417,3859.342,2114.307z"/>
		<path fill="#4EAF46" d="M6578.967,1876.37c-1.234-20.406,24.156-18.469,39.984-24.578
			c224.547,31.625,253.688,309.609,416.844,427.297c156.234,112.719,371.969,33.422,661.328,89.703
			c208.033,40.453,337.938,156.938,562.203,161.609c477.83,9.953,996.188-230.938,1446.109-337.297
			c78.75-18.641,158.281-28.141,249.221-42.891c53.764-8.719,164.717-90.953,211.013,2.625
			c58.612,143.922-101.03,101.016-158.187,119.234c-191.5,61.094-401.826,112.922-616.609,180.438
			c-285.062,89.594-583.859,198.422-843.092,242.406c-169.736,28.797-337.814,26.031-463.893-1.578
			c-141.828-31.047-276.016-140.312-415.797-174.422c-168.078-41-367.703,25.078-530.328-37.922
			C6864.342,2375.026,6841.826,1991.932,6578.967,1876.37z"/>
		<path fill="#4EAF46" d="M6829.998,1854.417c-1.219-20.422,24.172-18.484,40.016-24.578
			c118.078,68.234,187.438,214.156,316.672,246.328c105.859,26.375,236.172-16.141,378.391-12.016
			c180.859,5.25,388.344,73.922,554.906,77.938c577.844,13.969,1212.938-229.625,1788.156-282.922
			c63.547-5.906,182.234-52.656,233.768,21.703c37.686,107.031-109.972,106.359-158.189,119.234
			c-225,59.984-460.609,89.359-704,145.906c-375.156,87.203-804.186,231.297-1206.031,189.844
			c-160.562-16.594-320.328-110.391-474.875-127.094c-164.594-17.766-334.359,30.969-442.984-3.391
			C7005.029,2157.635,6925.045,1956.401,6829.998,1854.417z"/>
		<path fill="#4EAF46" d="M7018.279,1837.932c-5.391-17.484,6.438-20.469,19.078-22.75
			c948.234-12.125,1971.828-266.469,2949.734-258.078c36.297,0.344,145.547-46.328,131.031,51.766
			c34.033,133.891-147.328,93.781-201.891,101.984c-688.576,103.781-1556,217.031-2257.562,218.594
			C7378.482,1930.104,7174.779,1970.057,7018.279,1837.932z"/>
		<path fill="#4EAF46" d="M10191.326,2445.682c29.438,145.891-145.219,105.219-200.031,122.922
			c-228.359,73.734-473.812,153.922-715.734,252.328c-350.219,142.469-738.641,355.594-1092.279,285.266
			c-207.455-41.219-331.408-252.563-554.158-309.875c-145.891-37.5-302.625,16.359-444.797-24.344
			c-296.797-84.922-425.547-556.5-747.094-588.125c-332.609-32.688-657.546,195.453-936.703,377.078
			c-253.609,164.984-536.844,398.578-824.781,451.61c-239.688,44.156-524.812-28.751-785.016-57.798
			c-643.343-71.828-1251.359-143.594-1894.843-213.656c-94.438-10.281-276.094,37.828-324.75-98.062
			c7.219-134.297,229.438-36.812,313.781-27.438c607.969,67.609,1228.438,118.922,1851.141,196.391
			c251.391,31.297,526.812,102.641,724.094,84.219c242.141-22.578,476.953-204.281,666.578-332.344
			c202.516-136.797,387.219-307,575.562-408.719c121.047-65.391,305.609-156.641,470.172-167.609
			c464.953-31.062,523.875,518.188,899.047,638.062c155.875,49.812,306.859-7.078,465.734,22.5
			c228.033,42.438,379.533,253.297,592.312,264.391c646.562,33.672,1210.562-407.281,1790.734-493.969
			C10050.217,2414.026,10175.231,2350.917,10191.326,2445.682z"/>
		<path fill="#4EAF46" d="M10215.123,2717.651c66.546,146.312-108.062,90.281-156.375,140.172
			c-596.217,115.234-1089.953,618.063-1629.688,648.516c-60.812,3.422-165.625-1.438-233.812-21.719
			c-192.641-57.25-349.812-359.188-584.172-412.641c-123.375-28.172-271.188,22.563-401.156-7.078
			c-287.188-65.547-426.734-464.563-717.047-485.36c-424.109-30.406-720.547,213.469-1041.297,386.234
			c-253.047,136.329-534.266,314.079-813.016,345.172c-224.438,25.047-484.531-53.406-745.015-82.375
			c-613.641-68.25-1227.016-122.562-1872.062-194.594c-52.938-5.906-125.875-11.422-191.969-25.36
			c-31.031-6.562-147.812,16.688-132.828-72.703c-16.625-136.5,220.781-58.547,311.953-48.375
			c582.797,65.078,1226.344,147.657,1853,217.329c264.828,29.453,551.281,84.516,764.109,59.625
			c604.438-70.688,1020.563-714.063,1660.531-777.688c450.141-44.734,549.219,445.891,910.781,531.625
			c139.547,33.094,297.156-4.969,423.922,26.156c394.266,96.891,418.953,433.125,957.078,337.891
			c480.812-85.125,927.096-446.016,1425.971-567.454C10055.031,2702.62,10166.717,2638.167,10215.123,2717.651z"/>
		<path fill="#4EAF46" d="M10240.748,3010.526c29.658,135.657-145.359,122.485-198.217,143.829
			c-251.314,101.453-441.439,213.25-685.658,355.125c-275.717,160.156-647.562,424.266-1020.391,384.359
			c-321.734-34.453-392.938-432.516-699.75-529c-141.359-44.453-296.641,12.078-444.828-24.344
			c-283.078-69.547-432.844-371.36-728.812-378.907c-313.344-8.031-611.125,164.875-881.25,287.891
			c-256.172,116.688-534.875,277.672-835.766,326.078c-249.953,40.203-513.953-27.656-785.015-57.797
			c-626.938-69.734-1267.906-143.922-1894.828-213.688c-103.781-11.516-260.891,33.766-343.875-75.297
			c-1.219-13.969-2.422-27.875-3.656-41.828c-5.547-24.031,1.344-37.625,17.266-43.688
			c685.031,77.797,1431.75,151.328,2170.422,231.719c234.125,25.516,493.531,100.188,703.172,86.062
			c314.188-21.203,642.703-231.625,936.672-377.078c312.234-154.454,618.562-353.766,964.969-295.219
			c246.047,41.578,424.766,337.298,688.781,403.5c131.859,33.062,295.969-5.594,423.891,26.156
			c301.391,74.734,424.109,456.734,737.953,483.516c350.281,29.906,695.5-202.078,980.391-359.812
			c206.828-114.547,399.547-259.25,645.641-330.531C10048.842,2993.901,10172.061,2931.245,10240.748,3010.526z"/>
		<path fill="#4EAF46" d="M10264.545,3282.495c58.593,139.625-96.078,100.281-156.389,140.156
			c-534.361,112.75-1168.5,991.094-1780.58,851.422c-305.045-69.594-412.734-557.266-708.906-633.609
			c-67.889-17.5-277.516,6.406-380.219-8.891c-215.891-32.234-395.469-229.594-592.281-264.375
			c-637.484-112.656-1221.703,460.062-1979.047,510.406c-222.609,14.797-489.438-54.547-745.015-82.359
			c-609.344-66.359-1201.766-121.625-1872.109-194.594c-93.094-10.125-178.969-5.047-256.531-40.812
			c-57.734-26.609-46.812-1.656-49.172-80.016c-18.219-32.859,33.609-94.625,38.172-45.484
			c760.312,57.359,1419.844,154.094,2149.531,233.531c233.344,25.391,493.188,78.844,722.266,63.312
			c325.734-22.078,629.625-192.625,921.266-312.516c304.594-125.156,646.203-287.422,968.609-253.359
			c243.672,25.75,418.016,278.016,639.625,323.5c155.344,31.891,328.625-22.062,465.75,22.469
			c340.984,110.891,394.734,580.25,809.844,582.625c343.594,1.969,662.781-242.828,933.078-418.891
			c200.438-130.594,379.596-283.422,641.971-372.375C10091.7,3283.214,10202.248,3209.651,10264.545,3282.495z"/>
		<path fill="#4EAF46" d="M10290.156,3575.386c52.075,140.609-113.408,98.641-177.268,141.984
			c-412.312,146.234-793.357,628.109-1212.107,843.828c-401.549,206.938-699.893,84.609-904.25-215.984
			c-114.75-168.781-159.471-350.312-331.314-413.703c-104.344-38.5-312.75,0.203-465.75-22.5
			c-218.016-32.359-381.5-152.453-541.266-163.453c-677.703-46.469-1347.078,410.297-2050.969,411.344
			c-242.703,0.359-493.547-59.141-724.078-84.234c-604.203-65.781-1199.781-136.469-1788.406-201.891
			c-98.516-10.984-254.172,34.344-322.969-77.172c-1.219-13.953-2.438-27.891-3.641-41.844
			c-5.578-24.047,1.344-37.609,17.234-43.641c666.109,75.703,1440.984,152.281,2170.453,231.688
			c241.422,26.281,486.984,95.922,703.156,86.062c590.094-27,1165.141-428.25,1771.672-471.219
			c308.016-21.812,469.438,161.547,735.078,209.75c165.375,30.016,349.484-26.156,486.641,20.656
			c332.875,113.594,398.266,647.844,756.283,692.734c384.779,48.281,733.045-252.469,993.969-445.328
			c202.342-149.562,368.951-330.469,636.482-435.125C10101.531,3572.948,10222.092,3485.729,10290.156,3575.386z"/>
		<path fill="#4EAF46" d="M10315.795,3868.276c48.703,131.344-123.875,76.984-156.389,140.156
			c-331.596,147.781-566.408,396.172-890.189,668.094c-222.969,187.281-485.172,441.344-853,369.766
			c-381.281-74.203-431.797-742.656-769.094-839.188c-104.828-29.984-306.047,15.297-484.797,0.266
			c-236.859-19.953-397.797-87.219-659.484-68.75c-572.516,40.312-1152.25,283.109-1786.312,303.844
			c-234.938,7.703-491.688-54.828-745.015-82.406c-614.969-66.938-1184.266-119.656-1872.078-194.578
			c-84.719-9.234-182.141-6.516-256.547-40.812c-57.719-26.594-46.797-1.672-49.156-80.016
			c-18.234-32.859,33.594-94.625,38.172-45.516c709.594,66.766,1379.406,135.5,2105.843,216.281
			c222.11,24.703,453.813,85.766,682.266,87.875c663.812,6.109,1276.828-372.422,1970.922-362.141
			c171.938,2.516,367.953,95.594,579.516,117.938c152.703,16.109,337.205-30.812,463.891,1.562
			c397.439,101.547,401.844,779.266,850.939,810.906c393.201,27.688,734.561-307.688,967.561-506.25
			c194.189-165.5,356.859-368.938,611.906-475.125C10120.826,3866.886,10243.169,3778.511,10315.795,3868.276z"/>
		<path fill="#4EAF46" d="M10337.748,4119.292c53.016,141.453-77.391,128.922-154.531,161.109
			c-318.375,171.688-539.953,438.5-842.859,727.219c-215.844,205.781-499.516,478.125-824.766,451.578
			c-502.061-40.891-451.203-784.719-865.561-978.266c-1019.674,36.031-1919.299,239.844-2866.064,250.719
			c-478.797,5.547-1023.812-108.484-1510.922-162.906c-376.719-42.078-730.078-68.047-1127.078-112.203
			c-105.094-11.703-251.938-8.047-324.781-98.078c-1.25-13.953-2.453-27.875-3.672-41.828c-5.547-24.047,1.359-37.625,17.25-43.672
			c719.047,87.406,1424.5,144.594,2191.375,229.875c230.39,25.625,474.453,91.781,703.156,86.047
			c578.359-14.516,1207.688-207.906,1812.75-242.891c163.672-9.484,367.844,9.25,570.328,13.328
			c196.875,3.938,424.562-53.094,568.5-7.594c163.828,51.828,289.016,318.328,378.625,472.797
			c120.75,208.172,223.188,439.438,502.328,440.891c352.281,1.906,678.705-335.656,920.234-565.359
			C9755.123,4440.495,9982.514,4141.667,10337.748,4119.292z"/>
		<path fill="#4EAF46" d="M1839.498,4567.683c945.641,66.609,1830.328,205.859,2765.359,285.062
			c-829.5,129.812-1525.703-12.188-2264.047-97.047c-84.438-9.688-176.266-29.25-256.547-40.797
			c-77.422-11.172-185.719,17.297-237.438-63.547C1844.358,4623.464,1841.92,4595.573,1839.498,4567.683z"/>
		<path fill="#4EAF46" d="M1863.264,4839.62c450.547,32.859,873.516,98.672,1319.031,137.594
			c-334.703,99.312-730.016,62.594-1030.578,26.906C2037.592,4990.589,1820.123,5017.542,1863.264,4839.62z"/>
	</g>
</g>
<g>
	<g>
		<path fill="#2E4527" d="M1471.649,3447.671c579.328,111.718,1484,306.392,2163,441.001c258.234,51.188,524.094,133.344,714,126
			c455.984-17.594,685-401.016,1050-567.001c112,0,224,0,336,0c-216.891,127.345-426.031,262.485-651,399.001
			c-206.562,125.344-464.828,305.891-735,315c-216.875,7.297-480.656-96.594-735-147c-683.703-135.531-1480.844-268.453-2142-441
			C1471.649,3531.67,1471.649,3489.67,1471.649,3447.671z"/>
		<path fill="#2E4527" d="M2290.649,3468.671c633.031-71.547,1124.969,78.968,1680,189.001c167.188,33.141,283.219,87.297,441,63
			c276.984-42.656,369.156-290.532,693-273.001c79.312,27.015-60.75,94.515-105,126.001c-142.156,101.094-405.953,276.984-609,294
			c-159.454,13.344-352-45-546-84C3364.68,3687.125,2748.212,3562.125,2290.649,3468.671z"/>
		<path fill="#2E4527" d="M3697.649,3468.671c287.046-48.953,664.969-7.031,987-21
			C4450.946,3695.625,4023.102,3527.389,3697.649,3468.671z"/>
		<path fill="#2E4527" d="M6427.649,3468.671c0.576-20.438,25.718-16.297,42-21c220.952,51.077,225.702,330.532,377.999,462.001
			c145.812,125.891,367.641,65.703,651,147c203.703,58.453,322.953,185.797,546,210c475.141,51.562,1012.516-143.219,1470-210
			c80.062-11.688,160.125-14.234,252-21c54.328-3.984,172.016-76.25,209.999,21c45.86,148.469-109.466,91.812-167.999,105
			c-196.094,44.172-410.141,77.484-630,126c-291.781,64.391-598.906,146.797-861,168c-171.594,13.891-338.781-3.5-462-42
			c-138.594-43.266-262.719-163.844-399-210c-163.875-55.5-368.5-7.078-525-84
			C6668.491,3990.312,6679.445,3606.734,6427.649,3468.671z"/>
		<path fill="#2E4527" d="M6679.648,3468.671c0.577-20.438,25.719-16.297,42-21c111.688,78.265,168.078,229.673,294,273.001
			c103.188,35.516,236.703,4.484,378,21c179.734,21,380.422,107.484,546,126c574.422,64.266,1228.344-123.016,1806-126
			c63.859-0.344,186.156-36.562,230.999,42c28.235,109.922-118.827,96.391-167.999,105c-229.344,40.156-466.594,48.875-714,84
			c-381.361,54.156-821.344,160.328-1218,84c-158.5-30.516-309.5-137.891-462-168c-162.422-32.031-335.797,1.703-441-42
			C6827.586,3786.016,6765.461,3578.578,6679.648,3468.671z"/>
		<path fill="#2E4527" d="M6868.648,3468.671c-3.859-17.875,8.203-19.797,21-21c945.703,70.577,1987.531-93.594,2961,0
			c36.141,3.484,149.033-33.453,125.999,62.999c22.251,136.314-154.89,80.564-209.999,84.002
			c-695.016,43.359-1569.016,80.578-2268,21C7219.461,3591.891,7013.023,3613.953,6868.648,3468.671z"/>
		<path fill="#2E4527" d="M9976.647,4350.672c16.595,147.906-153.827,92.156-209.999,105c-233.906,53.547-485.406,112.062-735,189
			c-361.312,111.406-766.781,289.859-1113,189c-203.047-59.141-308.109-280.5-525-357c-142.078-50.078-302.922-10.094-441-63
			c-288.25-110.469-375.392-591.469-692.999-651c-328.5-61.578-672.062,137.375-966,294c-267.016,142.25-569.562,350.281-861,378
			c-242.656,23.094-520.313-74.375-777-126c-634.625-127.641-1234.063-252.125-1869-378c-93.203-18.484-278.375,13.625-315-126
			c18.922-133.156,231.781-16.688,315,0c599.781,120.344,1213.406,225.531,1827,357c247.688,53.078,515.844,148.156,714,147
			c243.203-1.391,492.922-161.938,693-273c213.672-118.625,412.531-272.078,609-357c126.281-54.609,318.125-129.408,483-126.002
			c465.891,9.596,476.718,561.893,839.999,714.002c150.938,63.203,306.312,19.688,462,63c223.453,62.141,356.016,285.406,567,315
			c641.203,89.906,1241.484-300.219,1827-336C9838.836,4306.828,9968.883,4254.859,9976.647,4350.672z"/>
		<path fill="#2E4527" d="M9976.647,4623.672c53.548,151.547-115.483,80.516-167.999,126c-604,62.844-1139.656,520.719-1680,504
			c-60.875-1.891-164.844-15.859-231-42c-186.906-73.828-317.172-388.297-546-462c-120.469-38.797-272.141-1.156-399-42
			c-280.375-90.312-384.64-499.984-671.999-546c-419.859-67.266-736.438,149.844-1071,294c-263.969,113.75-559.625,266.312-840,273
			c-225.766,5.391-478.031-95.438-735-147c-605.344-121.469-1211.656-229.031-1848-357c-52.219-10.5-124.406-22.359-189-42
			c-30.344-9.234-148.719,3.734-126-84c-4.672-137.422,225.031-39.094,315-21c574.891,115.625,1208.797,253.969,1827,378
			c261.266,52.422,541.813,132.234,756,126c608.328-17.734,1078.891-622.406,1722-630c452.296-5.328,508.265,492.062,860.999,609
			c136.094,45.125,296.469,20.938,420,63c384.344,130.875,379.625,467.969,924,420c486.391-42.859,962.453-363.484,1470-441
			C9818.492,4594.75,9935.367,4540.281,9976.647,4623.672z"/>
		<path fill="#2E4527" d="M9976.647,4917.672c17.734,137.734-155.452,109.344-209.999,126c-259.203,79.156-458.344,173.969-714,294
			c-288.625,135.531-682.094,366.234-1050,294c-317.516-62.359-353.734-465.125-651-588c-136.953-56.594-296.562-13.828-441-63
			c-275.952-93.969-398.858-407.672-692.999-441c-311.469-35.312-623.188,110.984-903,210c-265.375,93.922-557.047,230.016-861,252
			c-252.516,18.266-509.594-72.344-777-126c-618.453-124.094-1250.531-253.906-1869-378c-102.391-20.547-262.844,10.906-336-105
			c0-14,0-28,0-42c-3.422-24.422,4.641-37.359,21-42c675.672,137.203,1413.125,275.516,2142,420
			c231.015,45.812,482.922,142.812,693,147c314.859,6.25,660.453-174.719,966-294c324.5-126.656,647.016-298.516,987-210
			c241.5,62.875,393.749,373.031,650.999,462c128.484,44.438,295.312,20.219,420,63c293.719,100.719,382.672,491.938,693,546
			c346.312,60.312,710.453-140.688,1008-273c216.031-96.078,420.609-223.453,672-273
			C9786.934,4884.391,9915.117,4832.703,9976.647,4917.672z"/>
		<path fill="#2E4527" d="M9976.647,5190.672c46.203,144.188-104.452,91.547-167.999,126c-542.141,65.75-1250.438,885.484-1848,693
			c-297.859-95.938-362.625-591.125-651-693c-66.125-23.344-277.016-17.797-378-42c-212.25-50.922-373.938-263.203-566.999-315
			c-625.25-167.781-1257.125,351.859-2016,336c-223.047-4.672-482.797-97-735-147c-601.234-119.188-1186.578-225.875-1848-357
			c-91.859-18.219-177.844-20.625-252-63c-55.188-31.547-46.469-5.75-42-84c-15.312-34.328,41.719-91.344,42-42
			c752.406,123.422,1401.016,277.281,2121,420c230.266,45.656,484.453,121.531,714,126c326.406,6.406,644-137,945-231
			c314.328-98.156,668.766-230.016,987-168c240.516,46.875,392.187,313.375,608.999,378c151.969,45.297,329.312,6.641,462,63
			c330.031,140.172,342.641,612.438,756,651c342.109,31.906,681.391-184.156,966-336c211.062-112.625,402.891-249.25,672-315
			C9804.434,5176.312,9920.945,5112.688,9976.647,5190.672z"/>
		<path fill="#2E4527" d="M9976.647,5484.672c39.626,144.625-121.593,88.406-188.999,126c-423.438,109.75-845.094,556.562-1281,735
			c-418.094,171.125-704.609,23.25-882-294c-99.609-178.125-128.344-362.859-294-441c-100.562-47.453-311.562-27.047-462-63
			c-214.375-51.234-366.765-185.141-524.999-210c-671.062-105.375-1377.688,291.328-2079,231c-241.781-20.797-486.5-101.922-714-147
			c-596.172-118.188-1183.313-240.5-1764-357c-97.188-19.531-256.188,12.078-315-105c0-14,0-28,0-42
			c-3.422-24.422,4.641-37.359,21-42c656.953,133.5,1422.235,277.328,2142,420c238.219,47.234,476.813,137.969,693,147
			c590.188,24.547,1198.047-325.047,1806-315c308.765,5.109,453.547,201.844,713.999,273c162.109,44.297,350.438,4.406,483,63
			c321.688,142.156,340.281,680.078,693,756c379.109,81.625,752.266-187.641,1029-357c214.609-131.359,396.375-297.031,672-378
			C9788.961,5465.797,9916.617,5389.438,9976.647,5484.672z"/>
		<path fill="#2E4527" d="M9976.647,5778.672c37.095,135.109-130.093,65.906-167.999,126c-343.219,118.328-598.781,345.312-945,588
			c-238.422,167.125-521.797,397.344-882,294c-373.359-107.125-365.453-777.453-693-903c-101.844-39-306.25-11.438-483-42
			c-234.234-40.531-388.688-121.547-650.999-126c-573.828-9.719-1172.531,181.625-1806,147c-234.734-12.797-485.063-97.453-735-147
			c-606.797-120.297-1169.328-222.453-1848-357c-83.578-16.562-180.875-22.359-252-63c-55.188-31.547-46.469-5.75-42-84
			c-15.312-34.328,41.719-91.344,42-42c701.078,128.344,1362.36,255.203,2079,399c219.109,43.969,444.609,125,672,147
			c660.766,63.938,1304.422-259.734,1995-189c171.03,17.516,358.188,127.312,566.999,168c150.688,29.375,338.625-1.266,462,42
			c387.062,135.781,332.391,811.328,777,882c389.281,61.844,758.609-242.5,1008-420c207.891-147.938,387.688-336.453,651-420
			C9782.539,5760.297,9912.133,5682.938,9976.647,5778.672z"/>
		<path fill="#2E4527" d="M9976.647,6030.672c40.534,145.531-88.312,121.688-167.999,147c-332.109,143.328-576.109,389.766-903,651
			c-232.969,186.188-539.281,432.75-861,378c-496.578-84.531-381.125-821.094-777-1050c-1018.952-53-1932.905,71.641-2876.999,0
			c-477.454-36.219-1010.469-197.328-1491-294c-371.594-74.734-721.328-131.406-1113-210c-103.641-20.797-250.281-29.969-315-126
			c0-14,0-28,0-42c-3.422-24.422,4.641-37.359,21-42c708.688,149.734,1406.485,268.203,2163,420
			c227.266,45.609,464.625,132.781,693,147c577.422,35.906,1221.203-101.875,1827-84c163.873,4.844,365.656,41.297,566.999,63
			c195.812,21.109,427.594-15.891,567,42c158.688,65.906,260.203,342.297,336,504c102.156,217.891,184.031,457.203,462,483
			c350.766,32.562,705.344-275.25,966-483C9368.242,6299.859,9620.82,6022,9976.647,6030.672z"/>
		<path fill="#2E4527" d="M1471.649,5736.672c936.25,148.766,1805.422,364.594,2730,525c-837.656,57.016-1518.844-145.094-2247-294
			c-83.266-17.016-173.031-44.484-252-63c-76.141-17.875-186.516,1.047-231-84
			C1471.649,5792.672,1471.649,5764.672,1471.649,5736.672z"/>
		<path fill="#2E4527" d="M1471.649,6009.672c445.953,72.031,861.578,174.438,1302,252c-342.063,69.781-732.656-1.234-1029-63
			C1632.149,6175.234,1413.165,6183.125,1471.649,6009.672z"/>
	</g>
</g>
</svg>
